<svg width="301" height="44" xmlns="http://www.w3.org/2000/svg"><g fill="none" fill-rule="evenodd"><path d="M13.554 18.681L8.213.333h5.408l1.802 7.005c.668 2.536 1.135 4.804 1.536 6.94h.067c.334-2.07.868-4.404 1.536-6.94L20.364.333h5.475l-5.341 18.348h-6.944zM32.249 4.737v3.47h7.344v4.336h-7.344v6.138h-5.141V.401h13.019v4.403h-7.878z" fill="#2D7680"/><path d="M55.684 2.002c1.202 1.134 1.87 2.668 1.87 4.603 0 1.935-.601 3.47-1.87 4.604-1.202 1.134-3.071 1.668-5.475 1.668h-2.604v5.804h-5.14V.401h7.744c2.47 0 4.273.533 5.475 1.6zm-8.012 6.872h1.87c1.802 0 2.737-.734 2.737-2.269 0-1.468-.935-2.202-2.738-2.202h-1.87v4.47z" fill="#2D7680" fill-rule="nonzero"/><path d="M5.475 36.295l-1.469 4.47H.066L6.41 22.417h5.074l6.343 18.348h-3.94l-1.402-4.47h-7.01zm5.608-4.47a119.468 119.468 0 0 1-2.07-7.139h-.066c-.668 2.402-1.335 4.804-2.07 7.139l-.4 1.2h4.94l-.334-1.2zM31.447 24.019c1.135 1.067 1.736 2.535 1.736 4.337 0 1.801-.6 3.269-1.736 4.336s-2.804 1.602-5.008 1.602h-3.138v6.471h-3.805V22.417h6.943c2.204 0 3.873.534 5.008 1.601zm-8.146 7.072h2.604c2.27 0 3.405-.934 3.405-2.802s-1.135-2.802-3.405-2.802h-2.604v5.604z" fill="#75A6B9" fill-rule="nonzero"/><path d="M46.737 23.552c1.202 1 1.736 2.535 1.736 4.47H44.6c0-.934-.267-1.735-.8-2.202-.535-.533-1.336-.8-2.338-.8-.868 0-1.535.2-2.003.534-.534.4-.8.867-.8 1.467 0 .467.133.868.4 1.135.267.266.667.533 1.202.733.534.2 1.335.467 2.403.734 1.402.334 2.604.734 3.472 1.068.868.4 1.602.934 2.137 1.668.534.734.868 1.735.868 3.002 0 1.134-.334 2.135-.935 3.07-.601.867-1.469 1.534-2.537 2s-2.337.735-3.74.735c-2.336 0-4.139-.534-5.474-1.668s-2.003-2.736-2.003-4.737h3.94c0 1.134.333 1.935.934 2.535.6.534 1.469.867 2.67.867.935 0 1.737-.2 2.337-.6.601-.4.868-1 .868-1.735 0-.534-.133-.934-.4-1.2a3.035 3.035 0 0 0-1.135-.735c-.468-.2-1.269-.4-2.27-.667-1.47-.4-2.671-.734-3.539-1.134-.868-.334-1.602-.934-2.203-1.668s-.868-1.735-.868-3.002c0-1.068.267-2.002.868-2.802.534-.801 1.335-1.468 2.403-1.935 1.002-.467 2.204-.667 3.539-.667 2.27 0 4.006.533 5.141 1.534zM51.611 40.765V22.417h3.806v18.348z" fill="#75A6B9"/><g fill="#1E1E1C"><path d="M68.76 1.267v1.067c-.6-.534-1.265-.8-1.997-.8-.466 0-.8.133-1.132.333-.266.2-.4.533-.4.933 0 .667.4 1.2 1.265 1.6.8.4 1.465.8 1.93 1.2.467.4.666 1 .666 1.734 0 .667-.2 1.2-.665 1.6-.466.4-1.065.667-1.797.667a3.611 3.611 0 0 1-2.264-.8v-1.2c.333.333.666.667 1.065.8.4.2.8.267 1.198.267.466 0 .8-.134 1.065-.4s.4-.6.4-1c0-.467-.133-.867-.466-1.134s-.799-.6-1.465-.933c-.665-.334-1.131-.734-1.397-1.067-.267-.4-.4-.867-.4-1.4 0-.6.267-1.134.732-1.534.466-.4 1.065-.6 1.798-.6.599.133 1.264.267 1.863.667zM74.484 4.067v.934c-.266-.2-.533-.267-.799-.334-.266-.066-.466-.133-.732-.133-.599 0-1.065.2-1.464.6-.4.4-.533.933-.533 1.534 0 .6.2 1.133.6 1.533.399.4.931.6 1.597.6.266 0 .532-.067.798-.133.267-.067.466-.134.733-.267v.867c-.533.2-1.065.333-1.598.333-.865 0-1.597-.267-2.13-.867-.532-.533-.799-1.266-.799-2.066 0-.934.267-1.667.8-2.2S72.153 3.6 73.02 3.6c.266 0 .532 0 .798.067.134.133.4.267.666.4zM80.608 6v3.601h-.865v-3.6c0-.534-.133-.934-.333-1.2s-.533-.4-.999-.4c-.332 0-.599.066-.865.266-.266.134-.532.4-.799.734v4.134h-.865V.8h.865v3.867c.2-.266.533-.533.866-.733.332-.2.665-.267 1.065-.267.665 0 1.198.2 1.464.6.333.467.466 1 .466 1.734zM81.207 3.8h.932l1.731 4.068L85.467 3.8h.599l1.598 4.068 1.73-4.068h.932l-2.529 5.868h-.266l-1.798-4.4-1.797 4.4h-.266z"/><path d="M95.651 9.001c-.4.267-.732.4-1.065.534-.333.133-.732.133-1.132.133-.798 0-1.464-.267-1.996-.867-.533-.533-.8-1.267-.8-2.2 0-.867.267-1.6.733-2.134s1.132-.867 1.93-.867c.732 0 1.332.267 1.797.734.466.533.666 1.267.666 2.2h-4.193v.067c0 .6.2 1.067.532 1.467.4.4.865.6 1.464.6.4 0 .733-.067 1.065-.2.333-.134.666-.334.999-.534v1.067zm-.799-2.867c-.066-.533-.2-.933-.466-1.2-.266-.267-.665-.467-1.131-.467s-.866.134-1.132.467c-.333.333-.466.733-.532 1.2h3.261zM98.049 1.534v1.133h-1V1.534h1zm-1 2.266h1v5.735h-1V3.8z" fill-rule="nonzero"/><path d="M103.772 3.8l-3.328 4.935h3.395v.8h-4.86v-.067l3.329-4.867h-3.195v-.8z"/><path d="M109.297 9.001c-.4.267-.732.4-1.065.534s-.732.133-1.132.133c-.798 0-1.464-.267-1.997-.867-.532-.533-.798-1.267-.798-2.2 0-.867.266-1.6.732-2.134a2.51 2.51 0 0 1 1.93-.867c.732 0 1.332.267 1.797.734.466.533.666 1.267.666 2.2h-4.193v.067c0 .6.2 1.067.532 1.467.4.4.865.6 1.464.6.4 0 .733-.067 1.065-.2.333-.134.666-.334.999-.534v1.067zm-.799-2.867c-.066-.533-.2-.933-.466-1.2s-.665-.467-1.131-.467c-.466 0-.866.134-1.132.467-.333.333-.466.733-.532 1.2h3.261z" fill-rule="nonzero"/><path d="M114.555 4.334l-.466.733c-.2-.2-.4-.333-.532-.4-.2-.066-.333-.133-.533-.133-.333 0-.599.133-.932.467s-.532.733-.599 1.266v3.334h-.865V3.867h.865v1.4c.333-.533.666-.933.932-1.133.266-.267.599-.334.865-.334.2 0 .466.067.666.2.2 0 .4.134.599.334z"/><path d="M116.421 1.534v1.133h-1V1.534h1zm-1 2.266h1v5.735h-1V3.8z" fill-rule="nonzero"/><path d="M121.079 4.134V5c-.266-.2-.6-.334-.799-.4-.266-.067-.532-.134-.732-.134-.333 0-.532.067-.732.2a.606.606 0 0 0-.2.467c0 .4.333.733.999 1 .665.267 1.131.6 1.397.934.267.266.4.6.4 1 0 .466-.2.8-.533 1.133-.333.334-.798.467-1.398.467-.266 0-.599-.067-.865-.133s-.599-.2-.932-.4V8.2c.266.2.6.4.866.467.332.133.599.2.865.2.333 0 .599-.067.799-.2.2-.134.266-.334.266-.534 0-.333-.266-.666-.732-.933l-1.398-.8a1.518 1.518 0 0 1-.666-1.267c0-.467.133-.8.466-1.067.333-.266.732-.4 1.265-.4.599 0 1.132.2 1.664.467zM126.736 4.067v.934c-.266-.2-.533-.267-.799-.334-.266-.066-.466-.133-.732-.133-.599 0-1.065.2-1.464.6-.4.4-.533.933-.533 1.534 0 .6.2 1.133.6 1.533.399.4.931.6 1.597.6.266 0 .532-.067.798-.133.267-.067.466-.134.733-.267v.867c-.533.2-1.065.333-1.598.333-.865 0-1.597-.267-2.13-.867-.532-.533-.799-1.266-.799-2.066 0-.934.267-1.667.8-2.2.532-.534 1.197-.868 2.063-.868.266 0 .532 0 .798.067.067.133.4.267.666.4zM132.86 6v3.601h-.865v-3.6c0-.534-.133-.934-.333-1.2s-.533-.4-.999-.4c-.332 0-.599.066-.865.266-.266.134-.532.4-.799.734v4.134h-.865V.8h.865v3.867c.2-.266.533-.533.866-.733.332-.2.665-.267 1.065-.267.665 0 1.198.2 1.464.6.333.467.466 1 .466 1.734z"/><path d="M139.117 9.001c-.4.267-.732.4-1.065.534-.333.133-.732.133-1.132.133-.798 0-1.464-.267-1.996-.867-.533-.533-.8-1.267-.8-2.2 0-.867.267-1.6.733-2.134s1.132-.867 1.93-.867c.732 0 1.332.267 1.797.734.466.533.666 1.267.666 2.2h-4.193v.067c0 .6.2 1.067.532 1.467.4.4.865.6 1.464.6.4 0 .733-.067 1.065-.2.333-.134.666-.334.999-.534v1.067zm-.799-2.867c-.066-.533-.2-.933-.466-1.2a1.605 1.605 0 0 0-1.131-.467c-.466 0-.866.134-1.132.467-.333.333-.466.733-.532 1.2h3.261z" fill-rule="nonzero"/><path d="M144.376 4.334l-.466.733c-.2-.2-.4-.333-.532-.4-.2-.066-.333-.133-.533-.133-.333 0-.599.133-.932.467-.333.333-.532.733-.599 1.266v3.334h-.865V3.867h.865v1.4c.333-.533.666-.933.932-1.133.266-.267.599-.334.865-.334.2 0 .466.067.666.2.2 0 .4.134.599.334zM147.97.8h.932l2.862 6.801 2.863-6.8h.931l-3.661 8.867h-.199z"/><path d="M160.085 9.001c-.4.267-.732.4-1.065.534-.333.133-.732.133-1.132.133-.798 0-1.464-.267-1.996-.867-.533-.533-.8-1.267-.8-2.2 0-.867.267-1.6.733-2.134a2.51 2.51 0 0 1 1.93-.867c.732 0 1.332.267 1.797.734.466.533.666 1.267.666 2.2h-4.193v.067c0 .6.2 1.067.532 1.467.4.4.865.6 1.464.6.4 0 .733-.067 1.065-.2.333-.134.666-.334.999-.534v1.067zm-.732-2.867c-.067-.533-.2-.933-.466-1.2-.266-.267-.666-.467-1.132-.467s-.865.134-1.131.467c-.333.333-.466.733-.533 1.2h3.262z" fill-rule="nonzero"/><path d="M165.408 4.334l-.466.733c-.2-.2-.4-.333-.532-.4-.2-.066-.333-.133-.533-.133-.333 0-.599.133-.932.467-.333.333-.532.733-.599 1.266v3.334h-.865V3.867h.865v1.4c.333-.533.666-.933.932-1.133.266-.267.599-.334.865-.334.2 0 .466.067.666.2.2 0 .4.134.599.334z"/><path d="M170.598 9.001c-.4.267-.732.4-1.065.534-.333.133-.732.133-1.132.133-.798 0-1.464-.267-1.996-.867-.533-.533-.8-1.267-.8-2.2 0-.867.267-1.6.733-2.134s1.132-.867 1.93-.867c.732 0 1.332.267 1.797.734.466.533.666 1.267.666 2.2h-4.193v.067c0 .6.2 1.067.532 1.467.4.4.865.6 1.464.6.4 0 .733-.067 1.065-.2.333-.134.666-.334.999-.534v1.067zm-.799-2.867c-.066-.533-.2-.933-.466-1.2s-.665-.467-1.131-.467c-.466 0-.866.134-1.132.467-.333.333-.466.733-.532 1.2h3.261zM172.998 1.534v1.133h-1V1.534h1zm-1 2.266h1v5.735h-1V3.8z" fill-rule="nonzero"/><path d="M179.258 6.067v3.534h-.865V6.134c0-.6-.133-1.067-.4-1.267-.266-.2-.599-.4-.998-.4-.333 0-.6.067-.932.267-.266.2-.533.4-.732.733v4.134h-.799V3.867h.865v.8c.267-.333.533-.6.866-.733.332-.133.665-.267.998-.267.666 0 1.132.2 1.464.667.4.4.533 1 .533 1.734zM187.438.867v.8c-.133-.067-.2-.067-.333-.067h-.4c-.399 0-.731.134-.931.4-.2.267-.333.667-.333 1.267v.6h1.198v.8h-1.198v5.001h-.865v-5h-.866v-.8h.866v-.6c0-.801.2-1.401.532-1.868.333-.4.799-.667 1.465-.667h.466c.133.067.266.067.399.134z"/><path d="M188.378 3.8v3.468c0 .6.133 1 .333 1.266.2.267.599.4.998.4.333 0 .6-.066.932-.266.266-.2.533-.4.732-.734V3.8h.866v5.735h-.866v-.867c-.266.266-.532.533-.865.733-.333.2-.666.267-.998.267-.666 0-1.132-.2-1.465-.667-.333-.467-.466-1.067-.466-1.867V3.8h.799zm.865-2.2v1.067h-.865V1.6h.865zm2.13 0v1.067h-.865V1.6h.865z" fill-rule="nonzero"/><path d="M197.828 4.334l-.466.733c-.2-.2-.4-.333-.532-.4-.2-.066-.333-.133-.533-.133-.333 0-.599.133-.932.467s-.532.733-.599 1.266v3.334h-.932V3.867h.866v1.4c.332-.533.665-.933.931-1.133.267-.267.6-.334.866-.334.2 0 .466.067.665.2.267 0 .466.134.666.334z"/><path d="M204.818.8c.865 0 1.597.2 2.063.6s.733 1 .733 1.8-.267 1.4-.8 1.8c-.532.4-1.264.6-2.196.6h-1.331v3.935h-.932V.8h2.463zm-1.531 4h1.331c.732 0 1.265-.133 1.531-.4.267-.266.466-.666.466-1.2 0-.466-.133-.866-.466-1.133s-.798-.4-1.53-.4h-1.332V4.8zM212.068.867v.8c-.133-.067-.2-.067-.333-.067h-.4c-.399 0-.731.134-.931.4-.2.267-.333.667-.333 1.267v.6h1.398v.8h-1.398v5.001h-.865v-5h-.866v-.8h.866v-.6c0-.801.2-1.401.532-1.868.333-.4.799-.667 1.465-.667h.466c.133.067.266.067.399.134zM213.599.8v8.735h-.865V.8h.865zM219.858 9.001c-.4.267-.732.4-1.065.534-.333.133-.732.133-1.132.133-.798 0-1.464-.267-1.996-.867-.533-.533-.8-1.267-.8-2.2 0-.867.267-1.6.733-2.134s1.132-.867 1.93-.867c.732 0 1.332.267 1.797.734.466.533.666 1.267.666 2.2h-4.193v.067c0 .6.2 1.067.532 1.467.4.4.865.6 1.464.6.4 0 .733-.067 1.065-.2.333-.134.666-.334.999-.534v1.067zm-.732-2.867c-.067-.533-.2-.933-.466-1.2s-.666-.467-1.132-.467c-.466 0-.865.134-1.131.467-.333.333-.466.733-.533 1.2h3.262zM225.648 4.467h-1.265c.267.134.466.334.6.6s.2.534.2.8c0 .534-.2 1-.533 1.334-.333.333-.866.533-1.531.667-.666.066-.999.266-.999.6 0 .333.4.533 1.198.667.799.066 1.398.266 1.797.533.4.267.533.667.533 1.133 0 .534-.266.934-.732 1.267-.466.334-1.132.467-1.93.467-.866 0-1.532-.133-1.93-.467-.4-.333-.667-.733-.667-1.2 0-.4.134-.667.333-1 .2-.267.6-.467 1.132-.6-.466-.2-.666-.467-.666-.734 0-.4.333-.733.999-.933-.466-.2-.799-.4-.999-.733-.2-.334-.333-.667-.333-1.067 0-.6.2-1.067.666-1.467.466-.4.999-.534 1.797-.534h2.263v.667h.067zm-1.265 7.135c.333-.2.466-.4.466-.734 0-.333-.2-.6-.532-.733-.333-.2-.799-.267-1.465-.267-.466 0-.865.067-1.131.267-.267.2-.466.4-.466.8 0 .333.133.6.466.733.333.134.732.267 1.331.267.6 0 .998-.2 1.331-.333zm-.4-4.868c.267-.2.4-.533.4-.933 0-.334-.133-.667-.333-.867-.266-.267-.532-.333-.931-.333s-.733.133-.932.333c-.267.2-.4.533-.4.934 0 .4.133.733.4.933.266.2.532.333.932.333.266-.066.599-.133.865-.4zM231.238 9.001c-.4.267-.732.4-1.065.534-.333.133-.732.133-1.132.133-.798 0-1.464-.267-1.996-.867-.533-.533-.8-1.267-.8-2.2 0-.867.267-1.6.733-2.134s1.132-.867 1.93-.867c.732 0 1.332.267 1.797.734.466.533.666 1.267.666 2.2h-4.193v.067c0 .6.2 1.067.532 1.467.4.4.865.6 1.464.6.4 0 .733-.067 1.065-.2.333-.134.666-.334.999-.534v1.067zm-.799-2.867c-.066-.533-.2-.933-.466-1.2s-.665-.467-1.131-.467-.866.134-1.132.467c-.333.333-.466.733-.532 1.2h3.261z" fill-rule="nonzero"/><path d="M231.778 3.8h.93l1.73 4.068 1.6-4.068h.59l1.6 4.068 1.73-4.068h.93l-2.52 5.868h-.27l-1.8-4.4-1.8 4.4h-.26z"/><path d="M242.828 1.534v1.133h-1V1.534h1zm-1 2.266h1v5.735h-1V3.8z" fill-rule="nonzero"/><path d="M247.478 4.134V5c-.266-.2-.6-.334-.799-.4-.266-.067-.532-.134-.732-.134-.333 0-.532.067-.732.2a.606.606 0 0 0-.2.467c0 .4.333.733.999 1 .665.267 1.131.6 1.397.934.267.266.4.6.4 1 0 .466-.2.8-.533 1.133-.333.334-.798.467-1.398.467-.266 0-.599-.067-.865-.133s-.599-.2-.932-.4V8.2c.267.2.6.4.866.467.332.133.599.2.865.2.333 0 .599-.067.799-.2.2-.134.266-.334.266-.534 0-.333-.266-.666-.732-.933l-1.398-.8a1.518 1.518 0 0 1-.666-1.267c0-.467.133-.8.466-1.067.333-.266.732-.4 1.265-.4.599 0 1.132.2 1.664.467zM252.208 4.134V5c-.266-.2-.6-.334-.799-.4-.266-.067-.532-.134-.732-.134-.333 0-.532.067-.732.2a.606.606 0 0 0-.2.467c0 .4.333.733.999 1s1.131.6 1.397.934c.267.266.4.6.4 1 0 .466-.2.8-.533 1.133-.333.334-.798.467-1.398.467-.266 0-.599-.067-.865-.133s-.599-.2-.932-.4V8.2c.267.2.6.4.866.467.332.133.599.2.865.2.333 0 .599-.067.799-.2.2-.134.266-.334.266-.534 0-.333-.266-.666-.732-.933l-1.398-.8a1.518 1.518 0 0 1-.666-1.267c0-.467.133-.8.466-1.067.333-.266.732-.4 1.265-.4.599 0 1.132.2 1.664.467z"/><path d="M258.468 9.001c-.4.267-.732.4-1.065.534-.333.133-.732.133-1.132.133-.798 0-1.464-.267-1.996-.867-.533-.533-.8-1.267-.8-2.2 0-.867.267-1.6.733-2.134a2.51 2.51 0 0 1 1.93-.867c.732 0 1.332.267 1.797.734.466.533.666 1.267.666 2.2h-4.193v.067c0 .6.2 1.067.532 1.467.4.4.865.6 1.464.6.4 0 .733-.067 1.065-.2.333-.134.666-.334.999-.534v1.067zm-.799-2.867c-.066-.533-.2-.933-.466-1.2s-.665-.467-1.131-.467c-.466 0-.866.134-1.132.467-.333.333-.466.733-.532 1.2h3.261z" fill-rule="nonzero"/><path d="M264.518 6.067v3.534h-.865V6.134c0-.6-.133-1.067-.4-1.267-.266-.2-.599-.4-.998-.4-.333 0-.6.067-.932.267-.266.2-.533.4-.732.733v4.134h-.866V3.867h.866v.8c.266-.333.532-.6.865-.733.333-.133.666-.267.999-.267.665 0 1.131.2 1.464.667.466.4.599 1 .599 1.734zM269.248 4.134V5c-.266-.2-.6-.334-.799-.4-.266-.067-.532-.134-.732-.134-.333 0-.532.067-.732.2a.606.606 0 0 0-.2.467c0 .4.333.733.999 1 .665.267 1.131.6 1.397.934.267.266.4.6.4 1 0 .466-.2.8-.533 1.133-.333.334-.798.467-1.398.467-.266 0-.599-.067-.865-.133s-.599-.2-.932-.4V8.2c.267.2.6.4.866.467.332.133.599.2.865.2.333 0 .599-.067.799-.2.2-.134.266-.334.266-.534 0-.333-.266-.666-.732-.933l-1.398-.8a1.518 1.518 0 0 1-.666-1.267c0-.467.133-.8.466-1.067.333-.266.732-.4 1.265-.4.599 0 1.132.2 1.664.467zM274.908 4.067v.934c-.266-.2-.533-.267-.799-.334-.266-.066-.466-.133-.732-.133-.599 0-1.065.2-1.464.6-.4.4-.533.933-.533 1.534 0 .6.2 1.133.6 1.533.399.4.931.6 1.597.6.266 0 .532-.067.798-.133.267-.067.466-.134.733-.267v.867c-.533.2-1.065.333-1.598.333-.865 0-1.597-.267-2.13-.867-.532-.533-.799-1.266-.799-2.066 0-.934.267-1.667.8-2.2s1.197-.868 2.063-.868c.266 0 .532 0 .798.067.134.133.4.267.666.4zM281.028 6v3.601h-.865v-3.6c0-.534-.133-.934-.333-1.2-.2-.267-.533-.4-.999-.4-.332 0-.599.066-.865.266-.266.134-.532.4-.799.734v4.134h-.865V.8h.865v3.867c.2-.266.533-.533.866-.733.332-.2.665-.267 1.065-.267.665 0 1.198.2 1.464.6.333.467.466 1 .466 1.734z"/><path d="M286.218 5.534v3.134c0 .2.067.267.2.267s.333-.134.665-.4V9.2c-.2.134-.4.267-.599.334s-.333.133-.532.133c-.2 0-.333-.067-.466-.133-.133-.134-.133-.267-.133-.4V9c-.333.267-.6.467-.866.534s-.532.133-.798.133c-.4 0-.8-.133-1.065-.4s-.4-.6-.4-1c0-.534.2-.934.6-1.2.399-.334 1.264-.6 2.529-.934v-.467c0-.4-.067-.733-.267-.866a1.48 1.48 0 0 0-.865-.267c-.333 0-.666.067-.998.2-.267.133-.6.4-.866.667v-.934c.466-.533 1.132-.733 1.864-.733.666 0 1.132.133 1.465.467.332.333.532.733.532 1.333zm-1.531 3.4c.2-.066.4-.266.666-.466v-1.8a6.099 6.099 0 0 0-1.664.533c-.4.267-.6.533-.6.934 0 .266.067.466.267.666s.4.267.732.267c.133 0 .4-.067.599-.133z" fill-rule="nonzero"/><path d="M291.018.867v.8c-.133-.067-.2-.067-.333-.067h-.4c-.399 0-.731.134-.931.4-.2.267-.333.667-.333 1.267v.6h1.198v.8h-1.198v5.001h-.865v-5h-.866v-.8h.866v-.6c0-.801.2-1.401.532-1.868.333-.4.799-.667 1.465-.667h.466c.2.067.332.067.399.134z"/><path d="M290.348 3.8h1.132V2.534l.865-.534v1.8h1.797v.8h-1.797v3.068c0 .466.066.733.2.933s.332.267.665.267c.2 0 .4-.067.6-.133.199-.067.399-.134.598-.267v.867c-.2.133-.399.2-.665.266-.267.067-.466.067-.666.067-.532 0-.998-.133-1.198-.467-.2-.333-.4-.8-.4-1.533V4.6h-1.131v-.8z"/><path d="M68.16 16.336l3.928 8.801h-.999l-1.198-2.734h-3.994L64.7 25.138h-.998l3.794-8.801h.666zm-1.863 5.2h3.195l-1.664-3.733-1.531 3.734z" fill-rule="nonzero"/><path d="M76.281 19.736v.867c-.266-.2-.6-.334-.799-.4-.266-.067-.532-.134-.732-.134-.333 0-.532.067-.732.2a.606.606 0 0 0-.2.467c0 .4.333.734.999 1s1.131.6 1.397.934c.267.266.4.6.4 1 0 .467-.2.8-.533 1.133-.333.334-.798.467-1.398.467-.266 0-.599-.067-.865-.133-.266-.067-.599-.2-.932-.4v-.934c.266.2.6.4.866.467.332.133.599.2.865.2.333 0 .599-.067.799-.2s.266-.333.266-.534c0-.333-.266-.666-.732-.933l-1.398-.8a1.518 1.518 0 0 1-.666-1.267c0-.467.133-.8.466-1.067.333-.266.732-.4 1.265-.4a3 3 0 0 1 1.664.467zM80.941 19.736v.867c-.266-.2-.6-.334-.799-.4-.266-.067-.532-.134-.732-.134-.333 0-.532.067-.732.2a.606.606 0 0 0-.2.467c0 .4.333.734.999 1 .665.267 1.131.6 1.397.934.267.266.4.6.4 1 0 .467-.2.8-.533 1.133-.333.334-.798.467-1.398.467-.266 0-.599-.067-.865-.133-.266-.067-.599-.2-.932-.4v-.934c.266.2.6.4.866.467.332.133.599.2.865.2.333 0 .599-.067.799-.2s.266-.333.266-.534c0-.333-.266-.666-.732-.933l-1.398-.8a1.518 1.518 0 0 1-.666-1.267c0-.467.133-.8.466-1.067.333-.266.732-.4 1.265-.4.599 0 1.198.134 1.664.467z"/><path d="M87.331 20.136c.6.533.865 1.267.865 2.134 0 .866-.266 1.6-.865 2.133-.6.534-1.331.867-2.13.867-.865 0-1.597-.267-2.13-.867-.533-.6-.865-1.267-.865-2.067 0-.866.266-1.6.865-2.2.533-.6 1.265-.867 2.197-.867.798 0 1.53.267 2.063.867zm-.6 3.734c.4-.4.6-.934.6-1.6s-.2-1.2-.6-1.6c-.398-.4-.931-.6-1.53-.6s-1.065.2-1.464.6c-.4.4-.6.933-.6 1.6s.2 1.2.6 1.6c.399.4.931.6 1.53.6s1.066-.2 1.465-.6z" fill-rule="nonzero"/><path d="M93.588 19.603v.933c-.266-.2-.533-.266-.799-.333s-.466-.133-.732-.133c-.599 0-1.065.2-1.464.6-.4.4-.533.933-.533 1.533 0 .6.2 1.134.6 1.534.399.4.931.6 1.597.6.266 0 .532-.067.798-.133.267-.067.466-.134.733-.267v.867c-.533.2-1.065.333-1.598.333-.865 0-1.597-.267-2.13-.867-.532-.533-.799-1.267-.799-2.067 0-.933.267-1.667.8-2.2.532-.533 1.197-.867 2.063-.867.266 0 .532 0 .798.067.067.2.4.267.666.4z"/><path d="M95.986 17.069v1.133h-1V17.07h1zm-1 2.334h1v5.734h-1v-5.734zM101.109 21.069v3.2c0 .2.067.267.2.267s.333-.133.665-.4v.667c-.2.133-.4.267-.599.333-.2.067-.333.134-.532.134s-.333-.067-.466-.134c-.133-.133-.133-.267-.133-.4v-.133c-.333.266-.6.467-.866.533-.266.067-.532.134-.798.134-.4 0-.8-.134-1.065-.4-.267-.267-.4-.6-.4-1 0-.534.2-.934.6-1.2.399-.334 1.264-.6 2.529-.934v-.467c0-.4-.067-.733-.267-.867-.2-.2-.466-.266-.865-.266-.333 0-.666.066-.998.2-.267.133-.6.4-.866.666v-.933c.466-.534 1.132-.734 1.864-.734.666 0 1.132.134 1.465.467.332.267.532.734.532 1.267zm-1.531 3.4c.2-.066.4-.266.666-.466v-1.8a6.099 6.099 0 0 0-1.664.533c-.4.267-.6.533-.6.933 0 .267.067.467.267.667s.4.267.732.267c.2 0 .4 0 .599-.133z" fill-rule="nonzero"/><path d="M102.108 19.403h1.132v-1.267l.865-.533v1.8h1.797v.8h-1.797v3.067c0 .467.066.734.2.934s.332.266.665.266c.2 0 .4-.066.6-.133.199-.067.399-.133.598-.267v.8c-.2.134-.399.2-.665.267s-.466.067-.666.067c-.532 0-.998-.134-1.198-.467s-.4-.8-.4-1.533v-3.068h-1.13v-.733z"/><path d="M108.1 17.069v1.133h-1V17.07h1zm-1 2.334h1v5.734h-1v-5.734zM114.489 20.136c.6.533.865 1.267.865 2.134 0 .866-.266 1.6-.865 2.133-.6.534-1.331.867-2.13.867-.865 0-1.597-.267-2.13-.867-.533-.6-.865-1.267-.865-2.067 0-.866.266-1.6.865-2.2.533-.6 1.265-.867 2.197-.867a2.87 2.87 0 0 1 2.063.867zm-.666 3.734c.4-.4.6-.934.6-1.6s-.2-1.2-.6-1.6c-.399-.4-.932-.6-1.53-.6s-1.066.2-1.465.6c-.4.4-.6.933-.6 1.6s.2 1.2.6 1.6c.4.4.932.6 1.531.6s1.065-.2 1.464-.6z" fill-rule="nonzero"/><path d="M121.345 21.67v3.534h-.865v-3.467c0-.6-.133-1.067-.4-1.267-.266-.2-.599-.4-.998-.4-.333 0-.6.067-.932.267-.266.2-.533.4-.732.733v4.134h-.799V19.47h.865v.867c.267-.334.533-.6.866-.734.332-.133.665-.267.998-.267.666 0 1.132.2 1.464.667.4.334.533.934.533 1.667zM129.665 19.736v.867c-.266-.2-.6-.334-.799-.4-.266-.067-.532-.134-.732-.134-.333 0-.532.067-.732.2a.606.606 0 0 0-.2.467c0 .4.333.734.999 1 .665.267 1.131.6 1.397.934.267.266.4.6.4 1 0 .467-.2.8-.533 1.133-.333.334-.798.467-1.398.467-.266 0-.599-.067-.865-.133-.266-.067-.599-.2-.932-.4v-.934c.266.2.6.4.866.467.332.133.599.2.865.2.333 0 .599-.067.799-.2s.266-.333.266-.534c0-.333-.266-.666-.732-.933l-1.398-.8a1.518 1.518 0 0 1-.666-1.267c0-.467.133-.8.466-1.067.333-.266.732-.4 1.265-.4a3 3 0 0 1 1.664.467zM132.061 19.403v3.467c0 .6.133 1 .333 1.267.266.267.599.4.998.4.333 0 .6-.067.932-.267.266-.2.533-.4.732-.733v-4.134h.866v5.734h-.866v-.867c-.266.267-.532.534-.865.734s-.666.266-.998.266c-.666 0-1.132-.2-1.465-.666-.333-.467-.466-1.067-.466-1.867v-3.334h.799z"/><path d="M138.586 17.069v1.133h-1V17.07h1zm-1 2.334h1v5.734h-1v-5.734z" fill-rule="nonzero"/><path d="M143.244 19.736v.867c-.266-.2-.6-.334-.799-.4-.266-.067-.532-.134-.732-.134-.333 0-.532.067-.732.2a.606.606 0 0 0-.2.467c0 .4.333.734.999 1s1.131.6 1.397.934c.267.266.4.6.4 1 0 .467-.2.8-.533 1.133-.333.334-.798.467-1.398.467-.266 0-.599-.067-.865-.133-.266-.067-.599-.2-.932-.4v-.934c.266.2.6.4.866.467.332.133.599.2.865.2.333 0 .599-.067.799-.2s.266-.333.266-.534c0-.333-.266-.666-.732-.933l-1.398-.8a1.518 1.518 0 0 1-.666-1.267c0-.467.133-.8.466-1.067.333-.266.732-.4 1.265-.4a3 3 0 0 1 1.664.467zM147.97 19.736v.867c-.266-.2-.6-.334-.799-.4-.266-.067-.532-.134-.732-.134-.333 0-.532.067-.732.2a.606.606 0 0 0-.2.467c0 .4.333.734.999 1s1.131.6 1.397.934c.267.266.4.6.4 1 0 .467-.2.8-.533 1.133-.333.334-.798.467-1.398.467-.266 0-.599-.067-.865-.133-.266-.067-.599-.2-.932-.4v-.934c.266.2.6.4.866.467.332.133.599.2.865.2.333 0 .599-.067.799-.2s.266-.333.266-.534c0-.333-.266-.666-.732-.933l-1.398-.8a1.518 1.518 0 0 1-.666-1.267c0-.467.133-.8.466-1.067.333-.266.732-.4 1.265-.4a3 3 0 0 1 1.664.467z"/><path d="M154.227 24.603c-.4.267-.732.4-1.065.533-.333.134-.732.134-1.132.134-.798 0-1.464-.267-1.996-.867-.533-.533-.8-1.267-.8-2.2 0-.867.267-1.6.733-2.134s1.132-.867 1.93-.867c.732 0 1.332.267 1.797.734.466.533.666 1.267.666 2.2h-4.193v.067c0 .6.2 1.066.532 1.467.4.4.865.6 1.464.6.4 0 .733-.067 1.065-.2.333-.134.666-.334.999-.534v1.067zm-.799-2.934c-.066-.533-.2-.933-.466-1.2-.266-.267-.665-.467-1.131-.467s-.866.134-1.132.467c-.333.333-.466.734-.532 1.2h3.261zM159.153 19.403h2.197c.931 0 1.664.267 2.196.8.533.534.799 1.2.799 2.134 0 .866-.266 1.6-.799 2.133-.532.6-1.198.867-2.063.867-.333 0-.533 0-.733-.067s-.465-.133-.732-.266v3.2h-.865v-8.801zm.865 4.734c.4.267.866.333 1.398.333.6 0 1.132-.2 1.465-.6.399-.4.599-.933.599-1.6s-.2-1.2-.6-1.533c-.399-.4-.931-.534-1.597-.534h-1.265v3.934zM170.398 20.136c.6.533.865 1.267.865 2.134 0 .866-.266 1.6-.865 2.133-.6.534-1.331.867-2.13.867-.865 0-1.597-.267-2.13-.867-.533-.6-.865-1.267-.865-2.067 0-.866.266-1.6.865-2.2.533-.6 1.265-.867 2.197-.867.798 0 1.53.267 2.063.867zm-.6 3.734c.4-.4.6-.934.6-1.6s-.2-1.2-.6-1.6c-.398-.4-.931-.6-1.53-.6s-1.065.2-1.464.6c-.4.4-.6.933-.6 1.6s.2 1.2.6 1.6c.399.4.931.6 1.53.6s1.066-.2 1.465-.6z" fill-rule="nonzero"/><path d="M173.398 19.403v3.467c0 .6.133 1 .333 1.267.266.267.599.4.998.4.333 0 .6-.067.932-.267.266-.2.533-.4.732-.733v-4.134h.866v5.734h-.866v-.867c-.266.267-.532.534-.865.734-.333.2-.666.266-.998.266-.666 0-1.132-.2-1.465-.666-.333-.467-.466-1.067-.466-1.867v-3.334h.799zM182.848 19.936l-.466.733c-.2-.2-.4-.333-.532-.4-.2-.066-.333-.133-.533-.133-.333 0-.599.133-.932.467s-.532.733-.599 1.267v3.333h-.865V19.47h.865v1.4c.333-.533.666-.933.932-1.133.266-.267.599-.333.865-.333.2 0 .466.066.666.2.2-.067.4.133.599.333zM188.108 16.402v8.735h-.87v-8.735z"/><path d="M194.428 24.603c-.4.267-.732.4-1.065.533-.333.134-.732.134-1.132.134-.798 0-1.464-.267-1.996-.867-.533-.6-.8-1.267-.8-2.2 0-.867.267-1.6.733-2.134a2.51 2.51 0 0 1 1.93-.867c.732 0 1.332.267 1.797.734.466.533.666 1.267.666 2.2h-4.193v.067c0 .6.2 1.066.532 1.467.4.4.865.6 1.464.6.4 0 .733-.067 1.065-.2.333-.134.666-.334.999-.534v1.067zm-.732-2.934c-.067-.533-.2-.933-.466-1.2-.266-.267-.666-.467-1.132-.467s-.865.134-1.131.467c-.333.333-.466.734-.533 1.2h3.262z" fill-rule="nonzero"/><path d="M198.958 19.736v.867c-.266-.2-.6-.334-.799-.4-.266-.067-.532-.134-.732-.134-.333 0-.532.067-.732.2a.606.606 0 0 0-.2.467c0 .4.333.734.999 1s1.131.6 1.397.934c.267.266.4.6.4 1 0 .467-.2.8-.533 1.133-.333.334-.798.467-1.398.467-.266 0-.599-.067-.865-.133-.266-.067-.599-.2-.932-.4v-.934c.267.2.6.4.866.467.332.133.599.2.865.2.333 0 .599-.067.799-.2.2-.133.266-.333.266-.534 0-.333-.266-.666-.732-.933l-1.398-.8a1.518 1.518 0 0 1-.666-1.267c0-.467.133-.8.466-1.067.333-.266.732-.4 1.265-.4a3 3 0 0 1 1.664.467zM207.208 19.736v.867c-.266-.2-.6-.334-.799-.4-.266-.067-.532-.134-.732-.134-.333 0-.532.067-.732.2a.606.606 0 0 0-.2.467c0 .4.333.734.999 1s1.131.6 1.397.934c.267.266.4.6.4 1 0 .467-.2.8-.533 1.133-.333.334-.798.467-1.398.467-.266 0-.599-.067-.865-.133-.266-.067-.599-.2-.932-.4v-.934c.267.2.6.4.866.467.332.133.599.2.865.2.333 0 .599-.067.799-.2.2-.133.266-.333.266-.534 0-.333-.266-.666-.732-.933l-1.398-.8a1.518 1.518 0 0 1-.666-1.267c0-.467.133-.8.466-1.067.333-.266.732-.4 1.265-.4a3 3 0 0 1 1.664.467zM212.868 19.603v.933c-.266-.2-.533-.266-.799-.333s-.466-.133-.732-.133c-.599 0-1.065.2-1.464.6-.4.4-.533.933-.533 1.533 0 .6.2 1.134.6 1.534.399.4.931.6 1.597.6.266 0 .532-.067.798-.133.267-.067.466-.134.733-.267v.867c-.533.2-1.065.333-1.598.333-.865 0-1.597-.267-2.13-.867-.532-.533-.799-1.267-.799-2.067 0-.933.267-1.667.8-2.2.532-.533 1.197-.867 2.063-.867.266 0 .532 0 .798.067.067.2.4.267.666.4z"/><path d="M215.268 17.069v1.133h-1V17.07h1zm-1 2.334h1v5.734h-1v-5.734zM221.458 24.603c-.4.267-.732.4-1.065.533-.333.134-.732.134-1.132.134-.798 0-1.464-.267-1.996-.867-.533-.533-.8-1.267-.8-2.2 0-.867.267-1.6.733-2.134a2.51 2.51 0 0 1 1.93-.867c.732 0 1.332.267 1.797.734.466.533.666 1.267.666 2.2h-4.193v.067c0 .6.2 1.066.532 1.467.4.4.865.6 1.464.6.4 0 .733-.067 1.065-.2.333-.134.666-.334.999-.534v1.067zm-.799-2.934c-.066-.533-.2-.933-.466-1.2a1.605 1.605 0 0 0-1.131-.467c-.466 0-.866.134-1.132.467-.333.333-.466.734-.532 1.2h3.261z" fill-rule="nonzero"/><path d="M227.578 21.67v3.534h-.865v-3.467c0-.6-.133-1.067-.4-1.267-.266-.2-.599-.4-.998-.4-.333 0-.6.067-.932.267-.266.2-.533.4-.732.733v4.134h-.866V19.47h.866v.867c.266-.334.532-.6.865-.734.333-.133.666-.267.999-.267.665 0 1.131.2 1.464.667.4.334.599.934.599 1.667zM233.238 19.603v.933c-.266-.2-.533-.266-.799-.333s-.466-.133-.732-.133c-.599 0-1.065.2-1.464.6-.4.4-.533.933-.533 1.533 0 .6.2 1.134.6 1.534.399.4.931.6 1.597.6.266 0 .532-.067.798-.133.267-.067.466-.134.733-.267v.867c-.533.2-1.065.333-1.598.333-.865 0-1.597-.267-2.13-.867-.532-.533-.799-1.267-.799-2.067 0-.933.267-1.667.8-2.2.532-.533 1.197-.867 2.063-.867.266 0 .532 0 .798.067.067.2.333.267.666.4z"/><path d="M239.228 24.603c-.4.267-.732.4-1.065.533-.333.134-.732.134-1.132.134-.798 0-1.464-.267-1.996-.867-.533-.533-.8-1.267-.8-2.2 0-.867.267-1.6.733-2.134s1.132-.867 1.93-.867c.732 0 1.332.267 1.797.734.466.533.666 1.267.666 2.2h-4.26v.067c0 .6.2 1.066.532 1.467.4.4.866.6 1.465.6.4 0 .732-.067 1.065-.2.333-.134.666-.334.998-.534v1.067h.067zm-.799-2.934c-.066-.533-.2-.933-.466-1.2a1.605 1.605 0 0 0-1.131-.467c-.466 0-.866.134-1.132.467-.333.333-.466.734-.532 1.2h3.261z" fill-rule="nonzero"/><path d="M243.688 19.736v.867c-.266-.2-.6-.334-.799-.4-.266-.067-.532-.134-.732-.134-.333 0-.532.067-.732.2a.606.606 0 0 0-.2.467c0 .4.333.734.999 1s1.131.6 1.397.934c.267.266.4.6.4 1 0 .467-.2.8-.533 1.133-.333.334-.798.467-1.398.467-.266 0-.599-.067-.865-.133-.266-.067-.599-.2-.932-.4v-.934c.267.2.6.4.866.467.332.133.599.2.865.2.333 0 .599-.067.799-.2.2-.133.266-.333.266-.534 0-.333-.266-.666-.732-.933l-1.398-.8a1.518 1.518 0 0 1-.666-1.267c0-.467.133-.8.466-1.067s.732-.4 1.265-.4a3 3 0 0 1 1.664.467z"/><path d="M249.878 17.069v1.133h-1V17.07h1zm-1 2.334h1v5.734h-1v-5.734z" fill-rule="nonzero"/><path d="M256.138 21.67v3.534h-.865v-3.467c0-.6-.133-1.067-.4-1.267-.266-.2-.599-.4-.998-.4-.333 0-.6.067-.932.267-.266.2-.533.4-.732.733v4.134h-.866V19.47h.866v.867c.266-.334.532-.6.865-.734.333-.133.666-.267.999-.267.665 0 1.131.2 1.464.667.466.334.599.934.599 1.667z"/><path d="M260.728 16.402v.8c-.133-.067-.2-.067-.333-.067h-.4c-.399 0-.731.134-.931.4-.2.267-.333.667-.333 1.267v.6h1.198v.8h-1.198v5.001h-.865v-5h-.799v-.8h.865v-.6c0-.8.2-1.4.533-1.868.333-.4.799-.666 1.464-.666h.466c.067.066.2.133.333.133zm1.398.667v1.133h-.866V17.07h.866zm-.866 2.333h.866v5.734h-.866v-5.734z" fill-rule="nonzero"/><path d="M267.718 19.936l-.466.733c-.2-.2-.4-.333-.532-.4-.2-.066-.333-.133-.533-.133-.333 0-.599.133-.932.467s-.532.733-.599 1.267v3.333h-.865V19.47h.865v1.4c.333-.533.666-.933.932-1.133.266-.267.599-.333.865-.333.2 0 .466.066.666.2.2-.067.4.133.599.333zM272.978 20.403c.333-.4.666-.733.998-.867.267-.2.6-.266.999-.266.599 0 1.065.2 1.398.6s.466.933.466 1.666v3.601h-.866v-3.534c0-1.067-.466-1.6-1.331-1.6-.266 0-.532.067-.799.267s-.532.4-.732.733v4.2h-.865V21.67c0-1.067-.4-1.6-1.265-1.6-.333 0-.599.066-.865.266-.267.134-.466.4-.732.667v4.2h-.866V19.47h.866v.866c.266-.333.599-.6.865-.733.266-.2.599-.267.998-.267s.732.067.999.267c.333.133.599.467.732.8z"/><path d="M279.438 17.069v1.133h-1V17.07h1zm-1 2.334h1v5.734h-1v-5.734zM285.628 24.603c-.4.267-.732.4-1.065.533-.333.134-.732.134-1.132.134-.798 0-1.464-.267-1.996-.867-.533-.533-.8-1.267-.8-2.2 0-.867.267-1.6.733-2.134s1.132-.867 1.93-.867c.732 0 1.332.267 1.797.734.466.533.666 1.267.666 2.2h-4.193v.067c0 .6.2 1.066.532 1.467.4.4.865.6 1.464.6.4 0 .733-.067 1.065-.2.333-.134.666-.334.999-.534v1.067zm-.732-2.934c-.067-.533-.2-.933-.466-1.2a1.605 1.605 0 0 0-1.132-.467c-.466 0-.865.134-1.131.467-.333.333-.466.734-.533 1.2h3.262zm-1.93-5l1.065 1.933h-.6l-1.53-1.933h1.064z" fill-rule="nonzero"/><path d="M290.948 19.936l-.466.733c-.2-.2-.4-.333-.532-.4-.2-.066-.333-.133-.533-.133-.333 0-.599.133-.932.467s-.532.733-.599 1.267v3.333h-.865V19.47h.865v1.4c.333-.533.666-.933.932-1.133.266-.267.599-.333.865-.333.2 0 .466.066.666.2.2-.067.4.133.599.333z"/><path d="M296.138 24.603c-.4.267-.732.4-1.065.533-.333.134-.732.134-1.132.134-.798 0-1.464-.267-1.996-.867-.533-.533-.8-1.267-.8-2.2 0-.867.267-1.6.733-2.134s1.132-.867 1.93-.867c.732 0 1.332.267 1.797.734.466.533.666 1.267.666 2.2h-4.193v.067c0 .6.2 1.066.532 1.467.4.4.865.6 1.464.6.4 0 .733-.067 1.065-.2.333-.134.666-.334.999-.534v1.067zm-.799-2.934c-.066-.533-.2-.933-.466-1.2-.266-.267-.665-.467-1.131-.467s-.866.134-1.132.467c-.333.333-.466.734-.532 1.2h3.261z" fill-rule="nonzero"/><path d="M300.598 19.736v.867c-.266-.2-.6-.334-.799-.4-.266-.067-.532-.134-.732-.134-.333 0-.532.067-.732.2a.606.606 0 0 0-.2.467c0 .4.333.734.999 1s1.131.6 1.397.934c.267.266.4.6.4 1 0 .467-.2.8-.533 1.133-.333.334-.798.467-1.398.467-.266 0-.599-.067-.865-.133-.266-.067-.599-.2-.932-.4v-.934c.267.2.6.4.866.467.332.133.599.2.865.2.333 0 .599-.067.799-.2s.266-.333.266-.534c0-.333-.266-.666-.732-.933l-1.398-.8a1.518 1.518 0 0 1-.666-1.267c0-.467.133-.8.466-1.067.333-.266.732-.4 1.265-.4a3 3 0 0 1 1.664.467zM68.76 32.404v1.067c-.6-.534-1.265-.8-1.997-.8-.466 0-.8.133-1.132.333-.266.2-.4.533-.4.934 0 .666.4 1.2 1.265 1.6.8.4 1.465.8 1.93 1.2s.666 1 .666 1.734c0 .666-.2 1.2-.665 1.6-.466.4-1.065.666-1.797.666a3.611 3.611 0 0 1-2.264-.8v-1.2c.333.334.666.667 1.065.8.4.2.8.267 1.198.267.466 0 .8-.133 1.065-.4s.4-.6.4-1c0-.467-.133-.867-.466-1.134s-.799-.6-1.465-.933c-.665-.333-1.131-.734-1.397-1.067-.267-.4-.4-.867-.4-1.4 0-.6.267-1.134.732-1.534.466-.4 1.065-.6 1.798-.6.599.134 1.264.334 1.863.667zM69.425 35.005h.932l1.73 4.067 1.598-4.067h.599l1.598 4.067 1.731-4.067h.931l-2.529 5.867h-.266l-1.797-4.4-1.798 4.4h-.266z"/><path d="M80.476 32.671v1.133h-1v-1.133h1zm-1 2.334h1v5.734h-1v-5.734z" fill-rule="nonzero"/><path d="M85.134 35.338v.867c-.266-.2-.6-.334-.799-.4-.266-.067-.532-.134-.732-.134-.333 0-.532.067-.732.2a.606.606 0 0 0-.2.467c0 .4.333.734.999 1s1.131.6 1.397.934c.267.266.4.6.4 1 0 .467-.2.8-.533 1.133-.333.334-.798.467-1.398.467-.266 0-.599-.067-.865-.133-.266-.067-.599-.2-.932-.4v-.934c.266.2.6.4.866.467.332.133.599.2.865.2.333 0 .599-.067.799-.2.2-.133.266-.333.266-.534 0-.333-.266-.666-.732-.933l-1.398-.8a1.518 1.518 0 0 1-.666-1.267c0-.467.133-.8.466-1.067s.732-.4 1.265-.4a3 3 0 0 1 1.664.467zM89.86 35.338v.867c-.266-.2-.6-.334-.799-.4-.266-.067-.532-.134-.732-.134-.333 0-.532.067-.732.2a.606.606 0 0 0-.2.467c0 .4.333.734.999 1s1.131.6 1.397.934c.267.266.4.6.4 1 0 .467-.2.8-.533 1.133-.333.334-.798.467-1.398.467-.266 0-.599-.067-.865-.133-.266-.067-.599-.2-.932-.4v-.934c.267.2.6.4.866.467.332.133.599.2.865.2.333 0 .599-.067.799-.2.2-.133.266-.333.266-.534 0-.333-.266-.666-.732-.933l-1.398-.8a1.518 1.518 0 0 1-.666-1.267c0-.467.133-.8.466-1.067s.732-.4 1.265-.4a3 3 0 0 1 1.664.467z"/><path d="M98.647 31.938l3.927 8.801h-.998l-1.198-2.734h-3.994l-1.198 2.734h-.999l3.794-8.801h.666zm-1.93 5.2h3.195l-1.664-3.733-1.531 3.734z" fill-rule="nonzero"/><path d="M106.701 35.338v.867c-.266-.2-.6-.334-.799-.4-.266-.067-.532-.134-.732-.134-.333 0-.532.067-.732.2a.606.606 0 0 0-.2.467c0 .4.333.734.999 1 .665.267 1.131.6 1.397.934.267.266.4.6.4 1 0 .467-.2.8-.533 1.133-.333.334-.798.467-1.398.467-.266 0-.599-.067-.865-.133-.266-.067-.599-.2-.932-.4v-.934c.266.2.6.4.866.467.332.133.599.2.865.2.333 0 .599-.067.799-.2.2-.133.266-.333.266-.534 0-.333-.266-.666-.732-.933l-1.398-.8a1.518 1.518 0 0 1-.666-1.267c0-.467.133-.8.466-1.067.333-.266.732-.4 1.265-.4.599 0 1.198.134 1.664.467zM111.427 35.338v.867c-.266-.2-.6-.334-.799-.4-.266-.067-.532-.134-.732-.134-.333 0-.532.067-.732.2a.606.606 0 0 0-.2.467c0 .4.333.734.999 1 .665.267 1.131.6 1.397.934.267.266.4.6.4 1 0 .467-.2.8-.533 1.133-.333.334-.798.467-1.398.467-.266 0-.599-.067-.865-.133-.266-.067-.599-.2-.932-.4v-.934c.266.2.6.4.866.467.332.133.599.2.865.2.333 0 .599-.067.799-.2.2-.133.266-.333.266-.534 0-.333-.266-.666-.732-.933l-1.398-.8a1.518 1.518 0 0 1-.666-1.267c0-.467.133-.8.466-1.067.333-.266.732-.4 1.265-.4a3 3 0 0 1 1.664.467z"/><path d="M117.817 35.738c.6.533.865 1.267.865 2.134 0 .866-.266 1.6-.865 2.133s-1.331.867-2.13.867c-.865 0-1.597-.267-2.13-.867-.533-.6-.865-1.267-.865-2.067 0-.866.266-1.6.865-2.2.533-.6 1.265-.867 2.197-.867.798 0 1.53.267 2.063.867zm-.6 3.667c.4-.4.6-.933.6-1.6s-.2-1.2-.6-1.6c-.398-.4-.931-.6-1.53-.6-.6 0-1.065.2-1.464.6-.4.4-.6.933-.6 1.6s.2 1.2.6 1.6c.399.4.931.6 1.53.6s1.066-.133 1.465-.6z" fill-rule="nonzero"/><path d="M124.074 35.205v.933c-.266-.2-.533-.266-.799-.333s-.466-.133-.732-.133c-.599 0-1.065.2-1.464.6s-.533.933-.533 1.533c0 .6.2 1.134.6 1.534.399.4.931.6 1.597.6.266 0 .532-.067.798-.133.267-.067.466-.134.733-.267v.867c-.533.2-1.065.333-1.598.333-.865 0-1.597-.267-2.13-.867-.532-.533-.799-1.267-.799-2.067 0-.933.267-1.667.8-2.2.532-.533 1.197-.867 2.063-.867.266 0 .532 0 .798.067.067.2.333.267.666.4z"/><path d="M126.472 32.671v1.133h-1v-1.133h1zm-1 2.334h1v5.734h-1v-5.734zM131.596 36.672v3.2c0 .2.067.267.2.267s.333-.133.665-.4v.667c-.2.133-.4.267-.599.333-.2.067-.333.134-.532.134s-.333-.067-.466-.134c-.133-.133-.133-.267-.133-.4v-.133c-.333.266-.6.467-.866.533-.266.067-.532.134-.798.134-.4 0-.8-.134-1.065-.4-.267-.267-.4-.6-.4-1 0-.534.2-.934.6-1.2.399-.334 1.264-.6 2.529-.934v-.467c0-.4-.067-.733-.267-.867-.2-.2-.466-.266-.865-.266-.333 0-.666.066-.998.2-.267.133-.6.4-.866.666v-.933c.466-.534 1.132-.734 1.864-.734.666 0 1.132.134 1.465.467.332.267.532.734.532 1.267zm-1.597 3.4c.2-.066.399-.266.665-.466v-1.8a6.099 6.099 0 0 0-1.664.533c-.4.267-.599.533-.599.933 0 .267.067.467.266.667s.4.267.732.267c.2 0 .4-.067.6-.133z" fill-rule="nonzero"/><path d="M132.527 35.005h1.132v-1.267l.865-.533v1.8h1.797v.8h-1.797v3.067c0 .467.066.734.2.934.133.2.332.266.665.266.2 0 .4-.066.6-.133s.399-.133.598-.267v.8c-.2.134-.399.2-.665.267s-.466.067-.666.067c-.532 0-.998-.134-1.198-.467-.2-.333-.4-.8-.4-1.533v-3.068h-1.131v-.733z"/><path d="M138.586 32.671v1.133h-1v-1.133h1zm-1 2.334h1v5.734h-1v-5.734zM144.908 35.738c.6.533.865 1.267.865 2.134 0 .866-.266 1.6-.865 2.133s-1.331.867-2.13.867c-.865 0-1.597-.267-2.13-.867-.533-.6-.865-1.267-.865-2.067 0-.866.266-1.6.865-2.2.533-.6 1.265-.867 2.197-.867.798 0 1.53.267 2.063.867zm-.6 3.667c.4-.4.6-.933.6-1.6s-.2-1.2-.6-1.6c-.398-.4-.931-.6-1.53-.6s-1.065.2-1.464.6c-.4.4-.6.933-.6 1.6s.2 1.2.6 1.6c.399.4.931.6 1.53.6s1.066-.133 1.465-.6z" fill-rule="nonzero"/><path d="M151.831 37.205v3.534h-.865v-3.467c0-.6-.133-1.067-.4-1.267s-.599-.4-.998-.4c-.333 0-.6.067-.932.267-.266.2-.533.4-.732.733v4.134h-.866v-5.734h.866v.867c.266-.334.532-.6.865-.734.333-.133.666-.267.999-.267.665 0 1.131.2 1.464.667.466.4.599.934.599 1.667zM160.018 32.004v.8c-.133-.067-.2-.067-.333-.067h-.4c-.399 0-.731.134-.931.4s-.333.667-.333 1.267v.6h1.198v.8h-1.198v5.001h-.865v-5h-.866v-.8h.866v-.6c0-.8.2-1.4.532-1.868.333-.4.799-.666 1.465-.666h.466c.133.066.266.066.399.133z"/><path d="M164.878 35.738c.6.533.865 1.267.865 2.134 0 .866-.266 1.6-.865 2.133s-1.331.867-2.13.867c-.865 0-1.597-.267-2.13-.867-.533-.6-.865-1.267-.865-2.067 0-.866.266-1.6.865-2.2.533-.6 1.265-.867 2.197-.867.798 0 1.53.267 2.063.867zm-.6 3.667c.4-.4.6-.933.6-1.6s-.2-1.2-.6-1.6c-.398-.4-.931-.6-1.53-.6s-1.065.2-1.464.6c-.4.4-.6.933-.6 1.6s.2 1.2.6 1.6c.399.4.931.6 1.53.6.6 0 1.066-.133 1.465-.6z" fill-rule="nonzero"/><path d="M170.998 35.471l-.466.733c-.2-.2-.4-.333-.532-.4-.2-.066-.333-.133-.533-.133-.333 0-.599.133-.932.467-.333.333-.532.733-.599 1.267v3.333h-.865v-5.734h.865v1.4c.333-.533.666-.933.932-1.133.266-.267.599-.333.865-.333.2 0 .466.066.666.2.2 0 .4.133.599.333zM176.328 32.004l6.19 7.268v-7.268h.93v8.735h-.86l-6.13-7.201v7.201h-.93v-8.735zM186.048 35.005v3.467c0 .6.133 1 .333 1.267s.599.4.998.4c.333 0 .6-.067.932-.267.266-.2.533-.4.732-.733v-4.134h.866v5.734h-.866v-.867c-.266.267-.532.534-.865.734-.333.2-.666.266-.998.266-.666 0-1.132-.2-1.465-.666-.333-.467-.466-1.067-.466-1.867v-3.334h.799zM195.498 35.471l-.466.733c-.2-.2-.4-.333-.532-.4-.2-.066-.333-.133-.533-.133-.333 0-.599.133-.932.467-.333.333-.532.733-.599 1.267v3.333h-.865v-5.734h.865v1.4c.333-.533.666-.933.932-1.133.266-.267.599-.333.865-.333.2 0 .466.066.666.2.2 0 .4.133.599.333zM199.488 35.338v.867c-.266-.2-.6-.334-.799-.4-.266-.067-.532-.134-.732-.134-.333 0-.532.067-.732.2a.606.606 0 0 0-.2.467c0 .4.333.734.999 1 .665.267 1.131.6 1.397.934.267.266.4.6.4 1 0 .467-.2.8-.533 1.133-.333.334-.798.467-1.398.467-.266 0-.599-.067-.865-.133s-.599-.2-.932-.4v-.934c.267.2.6.4.866.467.332.133.599.2.865.2.333 0 .599-.067.799-.2.2-.133.266-.333.266-.534 0-.333-.266-.666-.732-.933l-1.398-.8a1.518 1.518 0 0 1-.666-1.267c0-.467.133-.8.466-1.067.333-.266.732-.4 1.265-.4a3 3 0 0 1 1.664.467z"/><path d="M202.088 32.671v1.133h-1v-1.133h1zm-1 2.334h1v5.734h-1v-5.734z" fill-rule="nonzero"/><path d="M208.348 37.205v3.534h-.865v-3.467c0-.6-.133-1.067-.4-1.267s-.599-.4-.998-.4c-.333 0-.6.067-.932.267-.266.2-.533.4-.732.733v4.134h-.866v-5.734h.866v.867c.266-.334.532-.6.865-.734.333-.133.666-.267.999-.267.665 0 1.131.2 1.464.667.466.4.599.934.599 1.667z"/><path d="M214.398 35.671h-1.265c.267.133.466.333.6.6s.2.533.2.8c0 .534-.2 1-.533 1.334-.333.333-.866.533-1.531.666-.666.067-.999.267-.999.6 0 .334.4.534 1.198.667.799.067 1.398.267 1.797.534s.533.666.533 1.133c0 .534-.266.934-.732 1.267-.466.333-1.132.467-1.93.467-.866 0-1.532-.134-1.93-.467-.4-.333-.667-.733-.667-1.2 0-.4.134-.667.333-1 .2-.267.6-.467 1.132-.6-.466-.2-.666-.467-.666-.734 0-.4.333-.733.999-.933-.466-.2-.799-.4-.999-.734-.2-.333-.333-.666-.333-1.067 0-.6.2-1.066.666-1.466.466-.4.999-.534 1.797-.534h2.263v.667h.067zm-1.331 7.068c.333-.2.466-.4.466-.734 0-.333-.2-.6-.533-.733-.333-.2-.799-.267-1.464-.267-.466 0-.866.067-1.132.267-.266.2-.466.4-.466.8 0 .333.133.6.466.733.333.134.732.267 1.331.267s1.065-.133 1.332-.333zm-.4-4.801c.267-.2.4-.533.4-.933 0-.334-.133-.667-.333-.867-.266-.267-.533-.334-.932-.334-.4 0-.732.134-.932.334-.266.2-.4.533-.4.933s.134.734.4.934.533.333.932.333c.333-.067.6-.2.865-.4z" fill-rule="nonzero"/><path d="M223.118 32.404v1.067c-.6-.534-1.265-.8-1.997-.8-.466 0-.799.133-1.132.333-.266.2-.399.533-.399.934 0 .666.4 1.2 1.265 1.6s1.464.8 1.93 1.2c.466.4.666 1 .666 1.734 0 .666-.2 1.2-.666 1.6-.466.4-1.065.666-1.797.666a3.611 3.611 0 0 1-2.263-.8v-1.2c.333.334.665.667 1.065.8.4.2.798.267 1.198.267.466 0 .799-.133 1.065-.4.266-.267.4-.6.4-1 0-.467-.134-.867-.467-1.134s-.799-.6-1.464-.933c-.666-.333-1.132-.734-1.398-1.067-.266-.4-.4-.867-.4-1.4 0-.6.267-1.134.733-1.534.466-.4 1.065-.6 1.797-.6.6.134 1.265.334 1.864.667zM228.848 35.205v.933c-.266-.2-.533-.266-.799-.333s-.466-.133-.732-.133c-.599 0-1.065.2-1.464.6s-.533.933-.533 1.533c0 .6.2 1.134.6 1.534.399.4.931.6 1.597.6.266 0 .532-.067.798-.133.267-.067.466-.134.733-.267v.867c-.533.2-1.065.333-1.598.333-.865 0-1.597-.267-2.13-.867-.532-.533-.799-1.267-.799-2.067 0-.933.267-1.667.8-2.2.532-.533 1.197-.867 2.063-.867.266 0 .532 0 .798.067.067.2.4.267.666.4z"/><path d="M231.238 32.671v1.133h-1v-1.133h1zm-1 2.334h1v5.734h-1v-5.734zM237.428 40.205c-.4.267-.732.4-1.065.533-.333.134-.732.134-1.132.134-.798 0-1.464-.267-1.996-.867-.533-.533-.8-1.267-.8-2.2 0-.867.267-1.6.733-2.134a2.51 2.51 0 0 1 1.93-.867c.732 0 1.332.267 1.797.734.466.533.666 1.267.666 2.2h-4.193v.067c0 .6.2 1.066.532 1.467.4.4.865.6 1.464.6.4 0 .733-.067 1.065-.2.333-.134.666-.334.999-.534v1.067zm-.799-2.934c-.066-.533-.2-.933-.466-1.2a1.605 1.605 0 0 0-1.131-.467c-.466 0-.866.134-1.132.467-.333.333-.466.734-.532 1.2h3.261z" fill-rule="nonzero"/><path d="M243.558 37.205v3.534h-.865v-3.467c0-.6-.133-1.067-.4-1.267-.266-.2-.599-.4-.998-.4-.333 0-.6.067-.932.267-.266.2-.533.4-.732.733v4.134h-.866v-5.734h.866v.867c.266-.334.532-.6.865-.734.333-.133.666-.267.999-.267.665 0 1.131.2 1.464.667.4.4.599.934.599 1.667zM249.218 35.205v.933c-.266-.2-.533-.266-.799-.333s-.466-.133-.732-.133c-.599 0-1.065.2-1.464.6s-.533.933-.533 1.533c0 .6.2 1.134.6 1.534.399.4.931.6 1.597.6.266 0 .532-.067.798-.133.267-.067.466-.134.733-.267v.867c-.533.2-1.065.333-1.598.333-.865 0-1.597-.267-2.13-.867-.532-.533-.799-1.267-.799-2.067 0-.933.267-1.667.8-2.2.532-.533 1.197-.867 2.063-.867.266 0 .532 0 .798.067.067.2.333.267.666.4z"/><path d="M255.208 40.205c-.4.267-.732.4-1.065.533-.333.134-.732.134-1.132.134-.798 0-1.464-.267-1.996-.867-.533-.533-.8-1.267-.8-2.2 0-.867.267-1.6.733-2.134a2.51 2.51 0 0 1 1.93-.867c.732 0 1.332.267 1.797.734.466.533.666 1.267.666 2.2h-4.26v.067c0 .6.2 1.066.532 1.467.4.4.866.6 1.465.6.4 0 .732-.067 1.065-.2.333-.134.666-.334.998-.534v1.067h.067zm-.799-2.934c-.066-.533-.2-.933-.466-1.2a1.605 1.605 0 0 0-1.131-.467c-.466 0-.866.134-1.132.467-.333.333-.466.734-.532 1.2h3.261z" fill-rule="nonzero"/></g></g></svg>